<svg preserveAspectRatio="none" overflow="visible" style="display: block;" width="272.058" height="224" viewBox="0 0 272.058 224" fill="none" xmlns="http://www.w3.org/2000/svg">
<g id="secure profile settings">
<path id="Vector" d="M86.3142 86.2433C95.6058 68.0258 122.482 1.74804 160.99 6.63727C160.54 6.71533 151.105 11.2348 150.692 16.0213C150.764 15.9021 149.4 18.5296 148.658 19.906C144.279 20.097 136.784 18.468 135.57 24.4706L103.075 167.039C125.833 173.044 151.456 166.932 157.574 174.574C159.152 173.091 163.647 165.917 168.873 166.862C172.455 168.319 181.018 178.056 184.81 186.497C188.602 194.938 174.364 198.782 174.364 198.782C130.073 246.54 -22.186 216.888 48.25 127.574C48.3913 127.369 48.5817 127.203 48.8036 127.091C49.0256 126.979 49.2721 126.924 49.5207 126.932C49.7693 126.939 50.012 127.009 50.2268 127.134C50.4415 127.26 50.6214 127.437 50.7501 127.65C56.9767 139.534 77.2506 139.739 79.5104 128.324L76.0982 114.297L75.7058 113.459C83.1177 110.172 83.6806 98.376 83.6806 98.376L83.5923 97.6529C89.3669 95.4178 93.3851 94.7769 85.9013 87.7183C85.5377 87.365 86.3142 86.2433 86.3142 86.2433Z" fill="white"/>
<path id="Vector_2" d="M173.807 171.493C170.413 172.791 166.822 174.258 164.392 177.066C166.017 173.5 169.242 170.903 172.293 168.576L173.807 171.493Z" fill="#151515"/>
<path id="Vector_3" d="M179.097 178.337L169.464 184.095L177.016 175.794L179.097 178.337Z" fill="#151515"/>
<path id="Vector_4" d="M185.524 185.85C182.127 188.11 178.369 190.914 174.115 190.827C178.002 189.866 180.717 186.394 183.232 183.496L185.524 185.85Z" fill="#151515"/>
<path id="Vector_5" d="M134.562 14.4495C132.801 18.3527 133.294 19.5852 135.145 23.0899C135.322 23.6671 136.207 24.7436 135.004 24.7107C133.2 24.9367 131.277 23.6836 130.948 21.8573C130.416 18.8334 132.025 15.98 134.311 14.2379C134.342 14.2152 134.379 14.2036 134.417 14.2047C134.455 14.2059 134.491 14.2199 134.52 14.2444C134.549 14.2689 134.569 14.3025 134.577 14.3397C134.584 14.377 134.579 14.4156 134.562 14.4495Z" fill="#151515"/>
<path id="Vector_6" d="M131.322 19.4518C137.327 15.8095 144.18 13.2745 151.228 12.9191C144.599 14.3202 138.463 17.7138 133.319 22.0628L131.322 19.4518Z" fill="#151515"/>
<path id="Vector_7" d="M33.555 149.923C35.8374 161.727 44.0074 159.773 50.0717 151.919C50.5852 151.071 51.9308 151.131 52.3828 152.01C53.7571 154.555 56.7153 157.556 59.6612 155.58C61.4505 154.475 63.2357 153.115 63.7123 151.009C64.1519 149.787 65.898 149.571 66.6602 150.598C68.1824 152.123 71.1797 155.358 73.1477 152.93C74.0126 151.741 74.9966 150.379 75.0849 148.908C74.9493 147.503 76.5229 146.379 77.7986 146.964C79.1956 147.546 80.8431 148.059 82.2709 148.119C83.4131 148.197 84.5779 147.883 84.736 146.652C85.254 144.062 85.2964 141.398 84.8613 138.792C84.4505 137.322 85.7365 135.762 87.2587 135.898C88.2099 136.04 89.3664 136.251 90.2744 136.132C90.5312 136.132 90.8907 135.937 90.751 136.077C90.7263 136.113 90.7114 136.154 90.7079 136.198C90.2272 134.269 88.8262 132.161 88.0702 130.302C87.6408 129.552 87.797 128.659 88.2345 127.948C93.4442 117.845 88.9145 116.799 79.5243 118.044L79.4339 117.73C91.1804 113.751 95.7718 117.935 90.6853 129.612C90.7378 129.496 90.7649 129.37 90.7649 129.243C90.7649 129.116 90.7378 128.99 90.6853 128.874C91.3016 129.994 92.224 131.697 92.8341 132.829C96.2011 138.059 91.8645 140.51 86.928 139.296C87.0928 139.324 87.2618 139.315 87.4224 139.268C87.5831 139.222 87.731 139.139 87.8552 139.027C87.9794 138.916 88.0766 138.777 88.1395 138.622C88.2023 138.467 88.2292 138.3 88.2181 138.133C89.3459 146.878 87.6675 154.541 76.7407 149.458C76.8523 149.503 76.973 149.519 77.0923 149.506C77.2116 149.493 77.3259 149.45 77.4252 149.383C77.5245 149.316 77.6058 149.225 77.6619 149.119C77.718 149.013 77.7474 148.894 77.7473 148.774C76.2908 156.991 70.2655 158.67 65.0106 152.061C65.0106 152.061 64.9099 151.954 64.9161 151.952C64.9741 152.015 65.0479 152.06 65.1296 152.084C65.2114 152.109 65.2981 152.11 65.3807 152.089C65.4633 152.068 65.5387 152.025 65.599 151.965C65.6593 151.905 65.7023 151.829 65.7234 151.747C65.1071 154.107 63.0015 155.835 61.0211 156.987C57.1611 159.736 52.8039 156.527 51.1255 152.838C50.992 152.614 51.1646 152.885 51.2652 152.714C44.3586 160.969 35.33 162.846 33.2243 149.98L33.555 149.923Z" fill="#151515"/>
<path id="Vector_8" d="M86.2132 102.721C93.2985 97.5849 97.2057 102.784 93.6415 109.911C93.6415 109.911 93.6539 109.865 93.621 109.859C96.7312 108.738 102.085 107.493 103.527 111.62C104.349 114.019 104.065 116.864 102.368 118.849C102.648 118.535 102.342 118.177 102.245 118.132C113.133 121.431 109.419 127.263 101.657 131.575C102.323 131.296 102.274 130.238 101.588 130C111.567 132.913 104.729 142.377 98.9457 145.805C99.2046 145.549 99.3135 144.673 98.8266 144.388C104.1 147.697 104.926 152.663 98.5739 155.276C95.967 156.401 92.7787 157.794 89.9931 156.547L90.1574 156.262C92.3555 157.083 101.146 152.708 100.454 150.117C99.7695 147.478 93.8593 146.83 96.8031 143.443C99.4737 141.002 107.559 135.203 100.69 132.865C98.9088 132.399 98.6664 129.689 100.402 128.962C100.784 128.781 101.187 128.586 101.557 128.381C114.61 120.431 97.7522 122.409 100.762 117.466C102.2 115.924 102.405 113.436 101.526 111.548C99.0608 108.672 95.0857 111.788 92.8773 110.919C92.1604 110.4 92.3781 109.481 92.7808 108.832C96.1046 102.464 92.4356 99.103 86.4124 102.996L86.2132 102.721Z" fill="#151515"/>
<path id="Vector_9" d="M33.5452 173.619C35.0407 176.263 38.2701 182.863 42.0151 180.725C44.1824 179.202 45.1952 176.546 45.1418 173.945C45.1151 172.684 46.7092 171.914 47.6912 172.713C50.1892 174.26 54.8319 177.738 57.065 174.313C58.1085 172.904 58.9036 171.123 58.6221 169.364C58.6216 169.373 58.6216 169.381 58.6221 169.389L61.7036 168.892C62.2151 171.538 63.3573 173.707 66.1244 171.562C68.0021 170.221 70.0995 168.748 71.3444 166.838C71.7306 165.704 73.2529 165.161 74.1917 165.997C75.8721 167.974 78.362 168.949 80.4923 166.909L80.7449 167.115C79.1015 170.196 75.2394 169.816 72.8852 167.793C72.8852 167.793 72.7599 167.692 72.7866 167.723C72.8481 167.784 72.9232 167.829 73.0056 167.855C73.088 167.881 73.1754 167.888 73.2607 167.874C73.346 167.86 73.4268 167.826 73.4965 167.775C73.5662 167.723 73.6228 167.656 73.6617 167.579C70.7569 174.486 60.1156 180.953 58.6139 169.506C58.0654 167.382 61.2188 166.566 61.6769 168.725C62.0754 171.764 60.4443 174.683 58.4023 176.791C54.7949 180.246 49.5688 176.719 46.4873 174.307C46.5423 174.342 46.6057 174.361 46.6708 174.363C46.7358 174.365 46.8001 174.349 46.8569 174.317C46.9137 174.285 46.9609 174.239 46.9935 174.182C47.0261 174.126 47.0428 174.062 47.042 173.997C46.929 177.078 45.4643 180.236 42.7567 181.861C37.8264 184.373 34.8045 177.341 33.2371 173.763L33.5452 173.619Z" fill="#151515"/>
<path id="Vector_10" d="M51.1263 204.351C69.3994 211.017 58.9574 193.893 65.4757 196.037C69.9828 198.315 74.5598 194.729 72.4418 189.874C71.7988 188.389 73.3663 186.77 74.8598 187.315C76.6737 188.342 79.0855 188.644 80.1619 186.483C81.3945 184.467 82.586 182.276 83.1201 179.995C83.6316 178.715 85.0245 178.483 86.2303 178.678C92.7487 179.213 92.1509 170.256 90.8114 166.028L91.0826 165.841C95.3104 172.004 95.0084 182.545 85.2628 181.955C85.5099 181.949 85.7472 181.857 85.9345 181.696C86.1217 181.534 86.2473 181.313 86.2899 181.07C84.7985 186.988 80.6036 193.919 73.9189 189.839C74.603 190.16 75.0734 189.287 74.9008 189.003C77.3865 196.062 70.7676 201.226 64.389 197.516C64.4302 197.533 64.475 197.539 64.5191 197.533C64.5632 197.528 64.6051 197.511 64.6409 197.484C64.6767 197.458 64.7052 197.423 64.7237 197.383C64.7421 197.342 64.75 197.298 64.7464 197.253C64.5985 207.57 59.4175 208.529 50.9825 204.649L51.1263 204.351Z" fill="#151515"/>
<path id="Vector_11" d="M79.4756 217.017C84.406 216.128 92.8286 214.674 90.9941 207.898C90.7159 205.748 90.2048 203.634 89.4698 201.594C89.3889 201.375 89.3547 201.142 89.3696 200.909C89.3845 200.676 89.448 200.449 89.5561 200.242C90.0368 199.231 91.2119 199.309 92.1487 199.476C101.175 200.645 99.2956 192.438 97.3851 186.782C96.8674 182.807 105.43 185.139 103.706 181.928C103.221 179.863 99.5257 177.534 101.802 175.693C104.44 174.935 107.696 173.922 107.708 170.558L108.035 170.523C109.043 173.894 106.013 176.685 103.049 177.604C103.223 177.635 103.587 177.193 103.414 176.85C108.902 181.764 108.881 186.889 99.7948 187.738C100.551 187.738 100.945 186.659 100.676 186.263C103.523 194.548 101.742 204.02 90.9366 201.481C91.0097 201.491 91.0841 201.482 91.1529 201.456C91.2217 201.429 91.2825 201.385 91.3296 201.328C91.3767 201.271 91.4085 201.204 91.4221 201.131C91.4357 201.059 91.4305 200.984 91.407 200.914C94.9384 212.882 91.6125 216.483 79.5044 217.348L79.4756 217.017Z" fill="#151515"/>
<path id="Vector_12" d="M124.617 217.034C130.315 213.91 133.111 209.273 124.877 207.363C123.571 207.157 123.306 205.308 124.401 204.692C129.876 200.499 129.142 198.252 123.519 194.928C113.727 188.956 124.567 189.613 126.843 184.644C126.488 183.048 122.423 180.891 121.104 179.521C120.333 178.987 119.448 178.144 119.795 177.111C120.793 174.773 122.957 177.086 123.3 170.574L123.624 170.531C124.481 173.05 124.378 176.595 121.664 177.927C122.098 177.846 122.012 177.195 121.839 177.074C123.501 178.027 125.375 179.182 127.012 180.199C134.494 184.626 127.375 190.386 121.993 191.943C122.56 191.719 122.69 190.823 122.145 190.476C124.974 193.303 130.958 195.472 130.342 200.23C129.777 202.948 127.527 204.69 125.368 206.118C125.249 206.198 125.321 206.149 125.333 206.118C125.355 206.089 125.369 206.055 125.373 206.019C125.378 205.983 125.374 205.947 125.362 205.913C125.349 205.879 125.328 205.849 125.301 205.825C125.274 205.801 125.241 205.785 125.206 205.777C134.087 208.447 132.121 214.249 124.76 217.34L124.617 217.034Z" fill="#151515"/>
<path id="Vector_13" d="M154.231 208.907C158.032 203.361 159.994 198.322 151.439 197.056C150.482 197.095 149.375 196.836 149.13 195.77C148.72 194.201 150.591 193.373 151.363 192.278C152.124 191.329 155.119 188.13 153.356 187.331C150.762 185.723 147.555 185.289 144.87 183.921C141.893 181.33 150.601 176.32 145.262 172.809L145.375 172.499C150.404 173.253 149.034 179.666 147.123 182.771C147.507 182.263 147.156 181.448 146.552 181.333C157.05 183.288 160.628 188.317 151.15 195.713C151.341 195.554 151.289 194.891 150.796 194.92C160.684 196.501 160.503 202.668 154.482 209.137L154.231 208.907Z" fill="#151515"/>
<path id="Vector_14" d="M112.423 38.7625C118.658 37.5854 120.821 40.2724 120.915 46.2792C120.915 46.2792 120.915 46.4209 120.915 46.423C120.971 45.8827 120.26 45.556 119.866 45.9238C126.049 38.6926 132.512 46.1086 128.494 53.1426L128.173 53.0748C127.557 50.4761 127.039 44.8781 123.329 46.6613C122.302 47.0269 121.567 48.2451 120.408 48.2883C120.145 48.2956 119.882 48.2465 119.639 48.1442C119.396 48.0419 119.178 47.8889 118.999 47.6953C118.82 47.5017 118.685 47.2721 118.602 47.0218C118.519 46.7715 118.49 46.5064 118.518 46.2442C119.069 40.862 117.978 39.2596 112.446 39.0891L112.423 38.7625Z" fill="#151515"/>
<path id="Vector_15" d="M98.7922 61.3122C104.388 54.9993 109.489 59.2086 108.542 66.6533C108.634 66.1829 108.018 65.883 107.675 66.2117C112.961 59.1428 119.717 63.993 116.86 71.6062C117.106 70.8051 116.131 70.0347 115.436 70.5277C118.275 68.9726 122.464 69.1103 124.159 72.2246L123.927 72.4526C118.52 69.2685 116.285 76.3558 113.805 72.0685C113.322 70.0676 114.937 67.7544 113.6 65.9056C112.219 64.408 109.832 67.9065 108.517 68.305C105.571 68.6296 106.566 65.6899 106.636 63.9108C107.094 58.2923 102.289 58.4772 99.0346 61.5443L98.7922 61.3122Z" fill="#151515"/>
<path id="Vector_16" d="M89.5315 79.4002C97.2865 76.2736 96.9784 82.0297 97.0954 87.8392C97.1365 87.5599 96.738 87.4387 96.5778 87.6338C101.568 79.9528 107.805 87.0566 106.644 93.7803C106.835 92.9709 105.8 92.3176 105.128 92.8353C112.612 86.467 115.28 93.3037 113.275 100.473C113.298 100.151 112.827 99.9719 112.692 100.188C114.002 99.5713 115.82 98.766 117.141 99.7603L116.975 100.044C115.666 99.8014 114.592 100.907 113.653 101.677C112.568 102.509 110.983 101.472 111.165 100.142C111.061 98.0429 111.313 95.4669 110.235 93.6426C108.674 94.0288 105.596 97.4657 103.899 94.8115C102.909 92.5004 105.337 89.2834 101.845 86.732C99.8503 85.8651 98.782 88.6034 97.2639 89.3101C91.783 89.4991 100.709 76.5036 89.6445 79.7022L89.5315 79.4002Z" fill="#151515"/>
<path id="Vector_17" d="M157.459 174.465C159.986 168.787 167.427 160.794 172.661 168.419C179.851 177.105 197.847 192.261 178.13 198.297C165.997 200.908 186.963 195.035 183.296 187.333C180.856 181.992 178.415 176.289 174.257 172.018C167.965 165.952 165.902 168.13 159.906 172.951C159.495 173.148 157.49 175.301 157.459 174.465Z" fill="#151515"/>
<path id="Vector_18" d="M103.235 167.063C102.989 166.683 103.176 166.961 103.124 166.876C112.285 168.405 121.593 168.725 130.858 168.91C138.442 169.549 153.642 166.611 157.691 174.457C158.053 175.513 154.254 172.129 153.198 172.376C136.425 172.398 119.351 171.451 103.048 167.197C102.989 167.111 103.163 167.386 102.911 166.991C102.92 166.948 102.947 166.911 102.984 166.887C103.021 166.864 103.066 166.856 103.109 166.865C103.152 166.875 103.19 166.901 103.213 166.938C103.237 166.975 103.245 167.02 103.235 167.063Z" fill="#151515"/>
<path id="Vector_19" d="M85.7636 87.8291C85.3692 87.2908 85.854 86.5965 86.1087 86.1014L86.0902 86.1363C101.767 53.5757 117.62 5.73936 160.951 6.142C164.117 6.9062 151.912 10.078 151.501 15.6534C151.228 16.2697 150.68 17.3174 150.367 17.9439C150.006 18.4021 149.353 20.6145 148.662 20.5385C147.666 20.5221 143.231 20.6659 142.354 20.6577C139.765 20.4112 137.049 21.9293 136.538 24.5773C129.553 58.884 121.819 94.0125 113.371 127.972C88.1035 230.071 121.601 74.6405 128.573 48.6228C130.141 42.0778 131.758 35.5452 133.424 29.0248C134.229 25.9824 134.823 21.0439 138.284 19.7805C141.139 18.4637 145.552 19.4682 148.656 19.271L148.097 19.6059C148.876 18.1925 149.741 16.621 150.464 15.1789L150.409 15.3843C151.491 10.569 156.816 8.30518 160.787 6.18925L161.027 7.14244C118.542 8.04633 104.579 57.9 85.7636 87.8291Z" fill="#151515"/>
<path id="Vector_20" d="M76.2218 114.26C76.3533 116.092 80.9282 128.944 79.0876 130.376C72.8671 142.346 54.4749 137.202 49.4562 126.836C44.8053 134.458 37.9213 140.805 34.5605 149.136C12.4253 228.785 130.548 236.162 174.461 198.681C141.154 228.735 71.16 235.977 40.5857 198.613C22.5181 171.521 28.0873 149.203 48.5811 126.012C48.7383 125.855 48.9326 125.739 49.1462 125.677C49.3598 125.614 49.5857 125.606 49.8031 125.654C50.0205 125.702 50.2223 125.803 50.3901 125.95C50.5578 126.096 50.686 126.282 50.7628 126.491C55.3398 137.216 75.209 141.282 79.2211 128.229V128.387C79.4327 128.311 75.2686 113.539 76.2218 114.26Z" fill="#151515"/>
<path id="Vector_21" d="M157.687 174.451C163.947 180.11 174.233 188.564 173.61 197.475C170.147 194.04 167.953 190.162 165.646 186.023C163.156 182.079 160.421 178.294 157.459 174.691C157.334 174.551 157.533 174.323 157.687 174.451Z" fill="#151515"/>
<path id="Vector_22" d="M90.8618 53.2636C87.4496 48.7153 81.7633 50.6094 81.7633 50.6094C76.9644 41.3076 66.734 42.5278 60.9141 49.0933C54.1924 46.7556 40.1656 50.2314 42.3411 61.224C31.5642 58.122 27.5501 71.9618 32.8626 76.7647C26.4942 79.9427 13.8417 101.642 34.0007 99.8879C31.0692 113.787 46.0451 114.543 52.5757 106.712C52.5757 106.712 52.7277 103.67 53.1797 99.8673C37.0082 99.1792 42.7684 81.6046 55.7558 88.0428C58.9009 77.4098 60.1397 92.2048 69.6326 72.5966C71.8923 73.4183 100.568 82.3278 87.8296 65.3942C87.8296 65.3942 94.274 57.8118 90.8618 53.2636Z" fill="#151515"/>
<path id="Vector_23" d="M79.6441 74.168C78.43 83.398 90.6942 86.8266 91.7645 93.7105C91.7173 97.1289 84.9319 98.6059 82.3969 97.9732C84.1061 96.3051 87.054 95.167 88.3729 93.5975C85.2421 87.3443 76.8462 82.0935 79.3339 74.0571C79.3486 74.0159 79.3791 73.9823 79.4186 73.9636C79.4581 73.945 79.5034 73.9427 79.5445 73.9574C79.5856 73.9722 79.6192 74.0026 79.6379 74.0421C79.6566 74.0816 79.6588 74.1269 79.6441 74.168Z" fill="#151515"/>
<path id="Vector_24" d="M60.3047 105.116C69.5778 119.664 79.8514 112.152 83.4978 98.3491C87.855 111.242 70.9234 123.042 62.2912 109.43C61.983 109.019 59.2446 104.705 60.3047 105.116Z" fill="#151515"/>
<path id="Vector_25" d="M64.8656 97.9506C67.3616 102.657 69.685 103.534 74.5065 105.042C74.537 105.051 74.5649 105.067 74.588 105.089C74.6111 105.111 74.6289 105.138 74.6398 105.168C74.6508 105.198 74.6547 105.23 74.6511 105.261C74.6476 105.293 74.6368 105.323 74.6195 105.35C73.4259 107.283 70.5294 107.75 68.7483 106.394C66.1516 104.339 64.8061 101.215 64.5472 98.0369C64.5449 97.9982 64.556 97.9599 64.5786 97.9285C64.6012 97.897 64.6339 97.8743 64.6713 97.8642C64.7087 97.854 64.7484 97.8571 64.7838 97.8728C64.8192 97.8886 64.8481 97.9161 64.8656 97.9506Z" fill="#151515"/>
<path id="Vector_26" d="M73.1875 85.6128C69.0954 89.0106 75.1802 98.711 75.8027 89.5673C76.0595 87.9013 75.7492 84.333 73.1875 85.6128Z" fill="#151515"/>
<path id="Vector_27" d="M55.2381 100.052C34.582 103.208 40.8394 76.1772 56.0598 88.2298C52.2737 88.4352 46.5853 86.9684 44.9665 91.4509C44.5721 92.8006 44.492 94.3269 45.2274 95.5842C47.2694 98.7889 51.6821 99.3887 55.2093 99.7256C55.2509 99.7249 55.2913 99.7399 55.3222 99.7677C55.3532 99.7955 55.3724 99.8341 55.3761 99.8755C55.3797 99.917 55.3675 99.9583 55.3419 99.9911C55.3163 100.024 55.2792 100.046 55.2381 100.052Z" fill="#151515"/>
<path id="Vector_28" d="M51.0604 127.181L51.6972 99.7521L54.9718 100.025L51.0604 127.181Z" fill="#151515"/>
<path id="Vector_29" d="M40.2976 80.861C38.7446 76.2819 40.1456 68.6708 46.2777 69.172C47.0049 69.1289 51.0642 70.5011 48.975 71.1298C42.8347 73.4306 41.4891 73.1964 40.7434 80.4131C40.7557 80.6699 40.4763 81.4916 40.2976 80.861Z" fill="white"/>
<path id="Vector_30" d="M63.5591 64.9359C64.8348 58.1794 71.3654 58.6108 74.4264 63.88C74.4079 63.6274 73.7628 63.3973 73.4916 63.6746C77.2243 57.9513 85.5853 63.2247 81.4254 68.8268C80.8235 69.3178 81.2035 65.4393 79.0321 64.7778C76.8792 63.7835 75.8438 66.1521 74.0751 66.2897C72.5158 66.3719 72.1112 64.9688 71.4702 63.8759C69.6008 61.1437 66.5748 60.4165 64.691 63.6191C64.4116 63.7999 63.7707 65.7289 63.5591 64.9359Z" fill="white"/>
<path id="Vector_31" d="M49.402 63.5658C43.5349 52.3719 57.3131 50.749 64.6264 54.911L62.794 55.5848C65.3331 45.6215 74.5426 44.4362 79.0415 53.6271C81.7285 53.6661 85.4099 54.1941 86.3692 57.1482C86.4781 57.4358 86.6712 58.6211 86.1638 58.2246C84.9517 55.3486 81.367 56.0696 78.8628 56.3367C76.1285 56.5031 75.693 53.2409 73.8523 51.996C69.8608 48.7913 66.7157 51.8419 65.2592 55.8724C65.0989 56.8133 64.1642 57.6206 63.287 56.9222C60.0597 54.8843 52.0931 52.9471 49.5108 56.6038C48.4303 58.693 48.9849 61.2876 49.706 63.4384C49.78 63.6192 49.4698 63.7507 49.402 63.5658Z" fill="white"/>
<path id="Vector_32" d="M175.976 173.113C186.839 165.574 182.178 161.129 186.784 155.631C190.921 153.988 195.884 160.533 195.587 164.405C195.352 168.22 194.391 171.932 193.448 175.628L192.704 174.328C203.759 175.649 204.332 159.742 213.71 157.277C219.873 156.505 226.446 161.706 220.283 167.092C216.38 171.267 213.588 176.367 209.494 180.295C204.184 185.156 193.28 192.722 186.823 188.831C195.028 190.146 202.978 182.738 208.28 177.276C211.978 172.481 215.166 167.368 219.349 162.963C219.665 162.61 219.449 162.107 219.071 161.899C208.681 154.247 205.831 177.111 195.163 176.52C193.997 176.505 191.213 176.93 191.449 175.102C193.368 168.689 196.809 159.056 187.84 156.529C185.837 157.164 185.375 162.131 184.563 164.011C183.216 168.165 179.713 171.135 176.153 173.401C175.982 173.496 175.785 173.212 175.976 173.113Z" fill="#151515"/>
<path id="Vector_33" d="M217.455 159.187C217.413 159.277 217.384 159.373 217.369 159.471C217.78 158.248 218.378 156.317 218.776 155.07L219.14 156.007C217.373 154.327 215.138 152.803 212.622 152.7C214.442 152.135 220.06 153.291 220.726 155.144C220.685 156.217 220.646 158.45 220.599 159.553C220.816 162.431 216.498 161.874 217.455 159.187Z" fill="#151515"/>
<path id="Vector_34" d="M227.944 165.005C230.527 160.539 235.167 157.018 240.447 156.755C244.225 156.517 251.659 158.045 249.644 163.286C246.768 169.005 238.208 168.847 241.386 161.016C244.566 152.669 256.522 152.64 263.083 156.437C256.167 156.297 245.231 155.798 243.701 164.528C243.701 164.528 243.689 164.514 243.674 164.514C243.66 164.514 243.648 164.502 243.643 164.494C244.89 164.777 246.815 163.444 247.464 162.263C248.426 160.268 245.4 159.415 243.972 158.933C242.256 158.423 240.452 158.275 238.676 158.499C236.9 158.723 235.189 159.313 233.653 160.233C231.525 161.483 229.68 163.162 228.234 165.163C228.127 165.35 227.836 165.186 227.944 165.005Z" fill="#151515"/>
<path id="Vector_35" d="M233.624 153.643C238.281 147.221 250.371 137.482 258.013 142.887C252.672 144.503 247.238 145.452 242.287 148.074C239.341 149.651 236.453 151.467 233.976 153.729C233.879 153.932 233.528 153.92 233.624 153.643Z" fill="#151515"/>
<path id="Vector_36" d="M22.9201 129.217C20.6192 128.492 18.2198 128.317 15.8368 128.482C13.6387 128.954 11.4365 129.262 9.20141 128.638C8.99598 128.545 8.44954 128.558 8.52349 128.211C12.0014 123.42 19.2223 125.994 23.0947 128.938C23.1224 128.965 23.1401 129 23.1447 129.038C23.1494 129.077 23.1408 129.115 23.1204 129.148C23.0999 129.181 23.0689 129.206 23.0324 129.218C22.996 129.231 22.9563 129.23 22.9201 129.217Z" fill="#151515"/>
<path id="Vector_37" d="M23.0107 140.245C12.6631 141.414 5.48744 147.268 0.175004 155.708C-1.89574 144.335 14.9331 138.425 23.0107 140.245Z" fill="#151515"/>
<path id="Vector_38" d="M206.111 21.5496L195.422 19.9062L206.111 18.2627V21.5496Z" fill="#151515"/>
<path id="Vector_39" d="M195.094 163.563C202.997 127.804 208.207 90.0746 219.857 55.3693C215.031 91.2969 204.08 129.369 195.094 163.563Z" fill="#151515"/>
<path id="Vector_40" d="M219.969 55.5463C212.066 91.3054 206.857 129.037 195.207 163.74C200.032 127.814 210.984 89.7421 219.969 55.5463Z" fill="#151515"/>
<path id="Vector_41" d="M210.9 159.822C218.295 126.308 222.985 90.8492 234.128 58.3954C229.806 92.0777 219.378 127.868 210.9 159.822Z" fill="#151515"/>
<path id="Vector_42" d="M144.474 27.2726L140.718 27.3466L140.953 27.1597C130.535 73.3012 122.932 123.323 108.626 168.047C116.12 120.758 129.58 73.6299 140.488 27.0446C140.414 26.607 144.326 27.061 144.474 26.9419C144.514 26.9464 144.552 26.9658 144.579 26.9963C144.607 27.0268 144.622 27.0663 144.622 27.1073C144.622 27.1482 144.607 27.1877 144.579 27.2182C144.552 27.2487 144.514 27.2681 144.474 27.2726Z" fill="#151515"/>
<path id="Vector_43" d="M175.039 28.7866L154.667 26.6665L175.115 25.4997L175.039 28.7866Z" fill="#151515"/>
<path id="Vector_44" d="M204.367 28.7518L191.238 27.1083L204.367 25.4649V28.7518Z" fill="#151515"/>
<path id="Vector_45" d="M190.7 157.109C198.34 122.372 203.295 85.6868 214.692 52.0107C210.12 86.9091 199.431 123.938 190.7 157.109Z" fill="#151515"/>
<path id="Vector_46" d="M187.247 129.203C169.849 129.517 144.447 130.025 127.247 130.265C127.072 130.267 126.899 130.23 126.74 130.157C126.581 130.084 126.441 129.976 126.329 129.842C126.217 129.707 126.137 129.549 126.094 129.38C126.051 129.211 126.046 129.034 126.08 128.862L127.851 118.603C127.904 118.3 128.063 118.025 128.3 117.828C128.536 117.632 128.835 117.525 129.143 117.529C147.837 116.756 166.595 117.066 185.293 117.824L189.036 118.009C189.148 118.007 189.258 118.027 189.362 118.068C189.465 118.11 189.559 118.172 189.637 118.251C189.716 118.33 189.778 118.424 189.819 118.528C189.86 118.631 189.879 118.742 189.876 118.854C189.264 121.875 188.005 126.175 187.247 129.203ZM187.041 128.95C187.452 125.503 187.777 122.085 188.223 118.691L189.044 119.675C169.118 120.614 149.094 120.961 129.151 120.158L130.443 119.082L128.424 129.293L127.261 127.89C143.901 128.135 170.196 128.64 187.041 128.946V128.95Z" fill="#151515"/>
<path id="Vector_47" d="M192.644 109.304C175.246 109.619 149.845 110.126 132.644 110.367C132.469 110.369 132.296 110.332 132.137 110.258C131.979 110.185 131.838 110.077 131.727 109.943C131.615 109.808 131.534 109.651 131.491 109.481C131.448 109.312 131.443 109.135 131.477 108.963L133.248 98.7043C133.301 98.4011 133.46 98.1266 133.697 97.9298C133.934 97.733 134.232 97.6267 134.54 97.6299C153.234 96.8575 171.992 97.1677 190.691 97.9257L194.434 98.1106C194.545 98.108 194.656 98.1282 194.759 98.1697C194.862 98.2113 194.956 98.2735 195.035 98.3525C195.113 98.4314 195.175 98.5256 195.216 98.6291C195.257 98.7327 195.277 98.8435 195.274 98.9549C194.662 101.977 193.402 106.276 192.644 109.304ZM192.439 109.052C192.85 105.605 193.174 102.186 193.62 98.7926L194.442 99.7766C174.515 100.715 154.492 101.063 134.548 100.259L135.841 99.1829L133.821 109.395L132.659 107.992C149.298 108.236 175.594 108.742 192.439 109.048V109.052Z" fill="#151515"/>
<path id="Vector_48" d="M197.129 89.408C179.731 89.7223 154.33 90.2298 137.129 90.4701C136.954 90.4722 136.781 90.4353 136.622 90.362C136.464 90.2887 136.323 90.1809 136.211 90.0465C136.1 89.912 136.019 89.7544 135.976 89.5849C135.933 89.4155 135.928 89.2385 135.962 89.067L137.733 78.8079C137.786 78.5047 137.945 78.2302 138.182 78.0334C138.418 77.8366 138.717 77.7303 139.025 77.7335C157.719 76.961 176.477 77.2712 195.176 78.0293L198.918 78.2142C199.03 78.2116 199.141 78.2317 199.244 78.2733C199.347 78.3149 199.441 78.3771 199.52 78.4561C199.598 78.535 199.66 78.6291 199.701 78.7327C199.742 78.8363 199.762 78.9471 199.759 79.0585C199.147 82.0804 197.887 86.38 197.129 89.408ZM196.924 89.1554C197.335 85.7083 197.659 82.2899 198.105 78.8962L198.927 79.8802C179 80.819 158.977 81.1662 139.033 80.363L140.326 79.2865L138.306 89.4984L137.143 88.0953C153.783 88.3398 180.078 88.8452 196.924 89.1512V89.1554Z" fill="#151515"/>
<path id="Vector_49" d="M200.695 69.5116C183.297 69.8259 157.896 70.3333 140.695 70.5737C140.52 70.5758 140.347 70.5389 140.188 70.4656C140.03 70.3923 139.889 70.2845 139.777 70.1501C139.666 70.0156 139.585 69.8579 139.542 69.6885C139.499 69.5191 139.494 69.3421 139.528 69.1706L141.299 58.9115C141.352 58.6083 141.511 58.3338 141.748 58.137C141.984 57.9402 142.283 57.8339 142.591 57.837C161.285 57.0646 180.043 57.3748 198.741 58.1329L202.484 58.3178C202.596 58.3152 202.707 58.3353 202.81 58.3769C202.913 58.4185 203.007 58.4807 203.086 58.5596C203.164 58.6386 203.226 58.7327 203.267 58.8363C203.308 58.9399 203.328 59.0507 203.325 59.1621C202.712 62.1839 201.453 66.4836 200.695 69.5116ZM200.49 69.2589C200.901 65.8118 201.225 62.3935 201.671 58.9998L202.493 59.9838C182.566 60.9226 162.543 61.2698 142.599 60.4665L143.891 59.3901L141.872 69.602L140.709 68.1989C157.349 68.4434 183.644 68.9487 200.49 69.2548V69.2589Z" fill="#151515"/>
<path id="Vector_50" d="M203.8 50.0752C186.402 50.3895 161.001 50.8969 143.8 51.1373C143.625 51.1394 143.452 51.1025 143.294 51.0292C143.135 50.9559 142.994 50.8481 142.883 50.7137C142.771 50.5792 142.69 50.4215 142.647 50.2521C142.604 50.0827 142.599 49.9057 142.633 49.7342L144.404 39.4751C144.457 39.1719 144.616 38.8974 144.853 38.7006C145.09 38.5038 145.389 38.3975 145.696 38.4007C164.39 37.6282 183.148 37.9384 201.847 38.6965L205.59 38.8814C205.701 38.8788 205.812 38.8989 205.915 38.9405C206.018 38.9821 206.112 39.0443 206.191 39.1232C206.269 39.2022 206.331 39.2963 206.372 39.3999C206.413 39.5035 206.433 39.6143 206.43 39.7257C205.818 42.7475 204.558 47.0472 203.8 50.0752ZM203.595 49.8225C204.006 46.3754 204.33 42.9571 204.776 39.5634L205.598 40.5474C185.671 41.4862 165.648 41.8334 145.705 41.0301L146.997 39.9537L144.977 50.1656L143.815 48.7625C160.454 49.007 186.75 49.5123 203.595 49.8184V49.8225Z" fill="#151515"/>
<path id="Vector_51" d="M183.461 147.778C166.063 148.092 140.663 148.61 123.463 148.84C123.288 148.842 123.114 148.804 122.956 148.731C122.797 148.657 122.657 148.549 122.545 148.415C122.433 148.28 122.353 148.122 122.31 147.953C122.267 147.783 122.262 147.606 122.296 147.435L124.064 137.178C124.118 136.874 124.278 136.6 124.515 136.403C124.752 136.207 125.051 136.1 125.359 136.103C144.053 135.331 162.809 135.641 181.509 136.399L185.252 136.584C185.364 136.58 185.475 136.598 185.579 136.639C185.683 136.68 185.777 136.742 185.856 136.821C185.935 136.9 185.996 136.995 186.036 137.099C186.077 137.203 186.095 137.315 186.09 137.426C185.474 140.45 184.215 144.75 183.461 147.778ZM183.255 147.525C183.666 144.076 183.991 140.658 184.436 137.266L185.258 138.25C165.331 139.189 145.308 139.534 125.365 138.733L126.645 137.656L124.625 147.868L123.456 146.465C140.115 146.71 166.408 147.215 183.251 147.525H183.255Z" fill="#151515"/>
<path id="Vector_52" d="M217.151 110.815C216.41 110.505 212.096 110.587 212.221 109.673C212.683 106.772 213.626 100.956 214.109 98.0617C214.688 94.6474 215.489 89.8322 216.1 86.4734C216.344 85.1525 217.813 85.4463 218.793 85.5633C220.395 85.9475 223.682 85.4093 223.497 87.8498C222.17 95.6808 219.921 103.495 217.151 110.815ZM216.971 110.539C217.626 102.62 218.292 94.9268 220.206 87.3259L221.498 89.296C220.025 88.9201 218.557 88.5195 217.116 88.0285L218.672 87.0014C216.95 94.2674 214.859 102.577 212.998 109.827L212.687 109.356C214.062 109.718 215.469 110.145 216.971 110.539Z" fill="#151515"/>
<path id="Vector_53" d="M223.595 78.9734C222.746 78.657 218.194 78.9734 218.512 77.8004C219.026 73.8767 219.579 69.8071 220.199 65.9122C220.308 65.1439 221.056 64.809 221.752 64.885C223.632 65.1603 227.915 64.5338 227.66 67.3954C226.882 71.3766 225.505 75.4708 223.595 78.9734ZM223.414 78.6981C223.478 74.5711 223.346 70.7069 224.236 66.7483L225.592 68.8026C224.098 68.4869 222.636 68.0359 221.224 67.455L222.779 66.4278C221.797 70.2447 220.686 74.2054 219.593 78.0038L219.168 77.3546C220.569 77.7942 221.964 78.277 223.414 78.6981Z" fill="#151515"/>
<path id="Vector_54" d="M132.639 123.796C148.838 123.404 165.529 120.63 181.585 123.796V124.125C165.527 127.29 148.842 124.517 132.639 124.125V123.796Z" fill="white"/>
<path id="Vector_55" d="M138.037 103.897C154.235 103.505 170.926 100.732 186.983 103.897V104.226C170.924 107.392 154.239 104.618 138.037 104.226V103.897Z" fill="white"/>
<path id="Vector_56" d="M142.522 84.0009C158.72 83.6086 175.411 80.8353 191.468 84.0009V84.3296C175.409 87.4953 158.724 84.722 142.522 84.3296V84.0009Z" fill="white"/>
<path id="Vector_57" d="M146.088 64.1045C162.286 63.7122 178.977 60.9389 195.033 64.1045V64.4332C178.975 67.5989 162.29 64.8256 146.088 64.4332V64.1045Z" fill="white"/>
<path id="Vector_58" d="M149.193 44.6682C165.391 44.2758 182.082 41.5025 198.139 44.6682V44.9969C182.08 48.1625 165.395 45.3892 149.193 44.9969V44.6682Z" fill="white"/>
<path id="Vector_59" d="M128.287 142.874C144.485 142.482 161.177 139.709 177.233 142.874V143.203C161.175 146.369 144.49 143.595 128.287 143.203V142.874Z" fill="white"/>
<path id="Vector_60" d="M261.23 30.1344C261.36 50.3323 240.233 65.1807 221.377 57.2881C194.246 46.2524 198.054 6.34155 226.749 0.589522C244.738 -3.23147 261.746 12.0895 261.23 30.1344ZM260.902 30.1344C261.037 10.937 239.679 -2.03792 222.41 5.44588C200.121 14.4848 200.059 46.121 222.122 55.5194C239.898 63.3976 261.337 49.8187 260.902 30.1344Z" fill="#151515"/>
<path id="Vector_61" d="M220.125 13.4617C224.234 24.0372 227.469 34.9311 230.473 45.8641L226.004 45.1307C235.214 30.2556 253.834 4.35909 272.058 1.70289C257.363 8.12873 242.046 31.4101 232.389 44.5144C230.918 46.2893 229.606 50.2377 226.721 48.51C225.078 47.183 225.454 44.7096 224.84 42.8546C222.894 33.1357 221.142 23.3387 220.125 13.4617Z" fill="#151515"/>
<path id="Vector_62" d="M191.433 21.4198C200.772 18.9115 180.601 11.0887 178.05 9.66923C183.767 11.4503 206.14 17.379 192.473 24.5382L191.433 21.4198Z" fill="#151515"/>
<path id="Vector_63" d="M160.933 6.48315C168.585 3.12849 173.433 2.99085 181.427 5.01228C184.046 5.72101 195.544 7.29254 195.279 10.5897C195.289 12.9295 190.18 16.2616 188.763 14.082C190.482 14.1991 192.425 11.7442 192.542 10.6636C192.552 10.7999 192.594 10.9319 192.665 11.0482C192.737 11.1645 192.836 11.2617 192.953 11.3313C182.425 8.73672 172.045 2.66216 161.05 6.7913C160.871 6.85703 160.746 6.56122 160.933 6.48315Z" fill="#151515"/>
<path id="Vector_64" d="M148.799 19.99C147.073 23.4535 145.101 27.2088 143.289 30.6395L143.303 29.5959C149.037 35.2575 154.789 23.6857 159.152 20.672C159.974 20.4789 158.618 23.2666 158.536 23.6898C156.851 27.6464 154.267 31.7817 150.031 33.3286C147.566 34.1112 144.587 33.8627 142.65 32.02C142.081 31.4037 140.99 30.4792 141.543 29.5733C143.141 27.2889 145.115 24.4848 146.744 22.2415C147.054 21.9868 148.735 19.0163 148.799 19.99Z" fill="#151515"/>
<path id="Vector_65" d="M173.117 12.767C175.874 14.5625 195.303 21.6149 193.898 24.1869C190.969 29.3514 186.343 33.4723 180.116 30.9661C175.377 29.6082 161.847 23.5501 160.547 19.2812C165.888 22.3442 172.034 24.1479 177.712 26.5288C184.72 29.791 187.335 29.8362 191.984 23.1269C191.862 23.2275 191.778 23.9486 192.023 24.2156C187.08 20.7131 177.673 16.5572 173.117 12.767Z" fill="#151515"/>
</g>
</svg>
