<svg preserveAspectRatio="none" overflow="visible" style="display: block;" width="289.2" height="264" viewBox="0 0 289.2 264" fill="none" xmlns="http://www.w3.org/2000/svg"><g><path d="M285.14 106.81L257.49 107.07C230.31 107.39 201.66 107.76 174.52 108.41C163.46 114.62 151.03 118.7 138.34 119.57C136.81 118.97 136.97 133.29 137.06 134.77C137.25 135.59 137.18 138.31 137.74 139.53C137.74 139.59 137.76 139.64 137.77 139.7H137.81C137.87 139.82 137.95 139.92 138.06 140C138.16 140.08 138.29 140.13 138.42 140.15C138.53 140.13 138.63 140.08 138.7 140C138.78 139.92 138.83 139.82 138.84 139.71C154.22 133.18 170.25 128.87 169.5 151.51C162.05 151.56 104.34 149.16 103.72 150.3L89.67 166.8C89.56 166.94 89.47 167.1 89.43 167.27C89.38 167.45 89.37 167.63 89.4 167.8C89.43 167.98 89.5 168.15 89.6 168.29C89.7 168.44 89.84 168.56 89.99 168.66C90.68 168.66 234.01 252.73 234.73 252.33C237.86 252.33 236.81 248.1 237.47 245.97C239 235.07 241.02 224.22 243.36 213.47C246.46 199.72 250.17 186.01 255.11 172.8C261.8 155.18 270.3 138.24 279.52 121.82C281.76 117.88 284.34 113.43 286.66 109.61C286.84 109.34 286.94 109.02 286.95 108.69C286.96 108.37 286.88 108.05 286.73 107.76C286.57 107.48 286.34 107.24 286.06 107.07C285.78 106.91 285.46 106.82 285.13 106.83L285.14 106.81Z" fill="#151515"/><path d="M92.68 24.88C89.59 20 86.68 14.41 86.29 8.56C86.51 6.71 87.02 3.45 88.84 2.71C89.27 3.66 89.61 4.65 89.87 5.66C91.24 10.08 90.55 14.67 91.77 19.17C91.65 19.82 93.73 25.67 92.68 24.88Z" fill="#151515"/><path d="M77.13 31.43C70.84 26.61 63.88 21.17 61.63 13.2C60.14 8.31 64.95 1.73 70.11 4.94C73.53 6.98 75.77 11.34 74.34 15.26C72.29 20.16 65.09 21.74 61.01 18.46C55.74 14.05 54.28 6.69 53.42 0.24C53.42 0.19 53.43 0.14 53.46 0.1C53.49 0.05 53.53 0.02 53.57 0.01C53.62 -0.01 53.67 -0 53.72 0.02C53.77 0.04 53.8 0.07 53.83 0.11C57.27 5.64 61.2 19.71 69.78 14.69C72.27 12.97 70.57 9.11 68.46 7.72C66.62 6.33 64.91 8.09 64.3 9.87C63.51 12.22 64.36 14.66 65.45 16.88C67.51 20.95 70.72 24.59 73.96 27.86C74.22 28.42 78.5 31.6 77.13 31.43Z" fill="#151515"/><path d="M33.55 70.24C32.02 67.92 16.9 48.21 12.18 46.8L2.13 68.46C8.04 67.67 14.03 67.67 19.94 68.46C29.34 69.79 33.55 70.24 33.55 70.24Z" fill="white"/><path d="M33.36 70.14C33.27 70.14 33.28 70.27 33.26 70.23C33.15 70.09 32.85 69.74 32.73 69.61C26.06 62.03 20.29 53.17 11.42 47.96L13.43 47.38C10.63 53.82 6.72 62.97 4.07 69.36L1.81 66.36C12.51 64.4 23.23 67.19 33.51 70.01C33.5 70.01 33.35 70.07 33.36 70.14ZM33.73 70.35C25.92 71.14 17.92 69.53 10.04 70.05C7.82 70.14 5.59 70.27 3.37 70.48C1.93 70.81 0.18 70.45 0 68.73C0.26 66.39 2.04 64.42 2.91 62.25L4.27 59.6C5.14 57.88 9.94 48.17 10.91 46.24C12.03 42.8 20.82 52.55 21.97 53.94C25.81 58.9 29.52 64.17 33.13 69.31C33.3 69.6 33.75 69.97 33.73 70.35V70.35Z" fill="#151515"/><path d="M14.76 77.28L2.14 96.99L31.93 90.84C31.93 90.84 18.33 90.93 14.76 77.28Z" fill="white"/><path d="M14.73 77.49C10.75 84.04 7.04 91.07 3.15 97.64L1.89 95.81C11.62 93.53 21.76 90.9 31.48 88.67L31.94 93.04C23.57 92.88 14.78 86.3 14.73 77.49ZM14.8 77.07C18.01 83.97 24.25 88.53 31.98 88.64C34.54 88.64 34.87 92.55 32.38 93C25.19 94.42 17.13 95.51 9.89 96.89C1.96 98.06 -2.59 100.59 4.64 91.34C7.92 86.75 11.66 81.68 14.8 77.07Z" fill="#151515"/><path d="M258.27 86.31C263.87 84.22 269.11 82.44 274.53 80.19C279.82 77.61 284.58 74.14 288.89 70.12C289.04 69.98 289.29 70.19 289.16 70.36C283.17 78.55 268.36 90.94 258.27 86.31Z" fill="#151515"/><path d="M258.3 95.31C263.26 93.61 268.37 94.4 273.42 93.5C276.44 92.99 279.38 92.04 282.14 90.69C282.18 90.67 282.22 90.67 282.27 90.68C282.31 90.69 282.35 90.71 282.37 90.75C282.4 90.79 282.41 90.83 282.4 90.88C282.39 90.92 282.37 90.96 282.34 90.99C279.11 93.78 275.09 95.68 270.94 96.7C267.8 97.65 264.48 98.13 261.3 97.06C260.72 96.84 257.79 96 258.3 95.31Z" fill="#151515"/><path d="M45.64 128.76C56.37 135.9 84.87 137.06 86.22 135.85C86.65 135.41 87.04 134.93 87.37 134.41L88.7 135.09C88.7 135.09 92.91 136.17 94.74 135.09C96.58 134.01 91.18 139.95 95.71 145.14L97.44 148.13L209.26 149.03C209.26 149.03 212.71 166.51 217.45 194.58C222.19 222.64 234.95 250.41 234.95 250.41L67.92 236.66L13.47 128.76H45.64Z" fill="white"/><path d="M97.44 147.91C125.13 147.14 153.63 146.99 181.32 146.99C190.64 147.01 199.96 147.05 209.28 147.11C209.72 147.12 210.14 147.27 210.48 147.55C210.81 147.83 211.04 148.22 211.13 148.65C215.39 168.95 217.38 189.71 221.87 209.95C223.67 217.27 225.86 224.76 228.35 231.9C229.77 236 231.32 240.12 232.97 244.14C233.79 246.15 234.63 248.17 235.53 250.15C235.57 250.25 235.59 250.36 235.58 250.47C235.57 250.58 235.53 250.68 235.46 250.77C235.4 250.86 235.31 250.94 235.22 250.98C235.12 251.03 235.01 251.05 234.9 251.05C224.46 250.19 214.01 249.41 203.56 248.68C158.57 245.77 112.66 242.54 67.73 238.93C65.43 239.56 60.23 225.27 59.08 224.2C55.75 217.47 48.91 203.92 45.6 197.16C34.53 174.69 23.27 151.77 12.5 129.21C12.43 129.05 12.4 128.88 12.41 128.7C12.43 128.53 12.49 128.36 12.58 128.21C12.68 128.07 12.81 127.94 12.96 127.86C13.11 127.78 13.29 127.73 13.46 127.73L21.5 127.91C29.36 128.34 38.29 127.89 45.83 128.79C35.63 129.69 23.88 129.43 13.45 129.84L14.39 128.32C33.13 163.62 51.93 199.94 69.91 235.66L68.08 234.43C123.55 238.92 179.54 244.94 234.98 249.79L234.36 250.67C227.22 234.32 221.25 217.49 217.21 200.09C214.3 185.83 210.22 163.87 207.38 149.39L209.24 150.93C172.57 150.15 132.85 150.68 97.44 147.91Z" fill="#151515"/><path d="M180.56 197.5H118.02L110.74 166.42H173.29L180.56 197.5Z" fill="white"/><path d="M180.73 197.63C161.08 197.94 137.67 198.51 118.02 198.78C117.73 198.78 117.45 198.69 117.22 198.51C117 198.33 116.84 198.08 116.78 197.79C114.86 190.07 110.98 174.53 109.11 166.8C109.05 166.55 109.05 166.29 109.1 166.04C109.16 165.8 109.27 165.56 109.43 165.36C109.59 165.16 109.79 165 110.02 164.89C110.25 164.78 110.5 164.72 110.76 164.72C113.36 164.6 115.97 164.51 118.58 164.44C123.65 164.31 129.15 164.21 134.21 164.19C147.26 164.09 160.37 164.28 173.41 164.64C175.83 164.36 175.89 172.22 176.62 174.16C177.78 179.59 179.66 192.05 180.73 197.63ZM180.4 197.37C177.52 187.3 174.24 176.9 171.56 166.82L173.29 168.18C152.46 168.73 131.56 168.96 110.74 168.1L112.39 166.02C114.12 173.79 117.56 189.43 119.26 197.2L118.03 196.23C137.56 196.51 160.86 197.08 180.4 197.37Z" fill="#151515"/><path d="M105.62 205.53C117.22 205.03 130.67 204.57 142.3 204.3C151.48 203.91 160.65 203.59 169.81 204.46C172.87 204.72 175.93 205.03 178.98 205.52C179.02 205.53 179.06 205.55 179.08 205.58C179.11 205.61 179.12 205.65 179.12 205.69C179.12 205.73 179.11 205.77 179.08 205.81C179.06 205.84 179.02 205.86 178.98 205.87C163.91 208.38 148.34 207.24 133.13 206.87C126.52 206.67 116.79 206.32 110.21 206.07C110.48 205.97 104.31 206.15 105.62 205.53Z" fill="#151515"/><path d="M142.3 215.03C148.21 214.5 154.7 214.09 160.64 213.79C165.23 213.41 169.83 213.09 174.39 213.96C175.07 214.18 179.48 214.63 178.98 215.38C171.57 217.88 163.68 216.77 156.05 216.38C151.61 216.1 146.71 215.78 142.3 215.38C142.26 215.37 142.22 215.35 142.19 215.32C142.17 215.29 142.15 215.25 142.15 215.2C142.15 215.16 142.17 215.12 142.19 215.09C142.22 215.06 142.26 215.03 142.3 215.03Z" fill="#151515"/><path d="M241.29 241.76C247.76 241.13 254.86 240.63 261.37 240.28C266.4 239.82 271.42 239.44 276.43 240.48C277.15 240.71 282.11 241.34 281.45 242.18C273.37 245.16 264.71 243.85 256.35 243.38C251.49 243.04 246.13 242.66 241.28 242.18C241.23 242.17 241.19 242.15 241.16 242.11C241.12 242.07 241.11 242.02 241.11 241.97C241.11 241.92 241.13 241.87 241.16 241.83C241.2 241.79 241.24 241.77 241.29 241.76Z" fill="#151515"/><path d="M186.05 257.3C195.99 257.58 206.88 258.08 216.84 258.63C227.05 259.05 238.1 259.37 247.51 263.18C237.33 264.95 226.73 263.52 216.54 262C212.74 261.52 205.07 260.5 201.28 259.96C196.19 259.23 191.1 258.51 186.03 257.72C185.77 257.69 185.78 257.28 186.05 257.3Z" fill="#151515"/><path d="M64.85 250.85C78.55 251.48 93.26 253.08 106.94 254.05C115.29 254.95 124.34 256.11 131.92 259.34C126.35 260.19 120.44 259.59 114.78 259.28C99.74 257.46 83.97 254.34 68.99 251.97C68.37 251.85 66.48 251.54 65.87 251.44L64.81 251.28C64.78 251.28 64.76 251.27 64.73 251.26C64.71 251.25 64.68 251.23 64.67 251.21C64.65 251.18 64.63 251.16 64.63 251.13C64.62 251.11 64.61 251.08 64.62 251.05C64.62 251.02 64.63 250.99 64.64 250.97C64.65 250.94 64.67 250.92 64.69 250.9C64.71 250.89 64.74 250.87 64.76 250.86C64.79 250.86 64.82 250.85 64.85 250.85Z" fill="#151515"/><path d="M31.97 237.1C37.49 237.31 43.14 237.17 48.57 238.14C50.44 238.76 52.14 239.58 53.66 240.98C53.92 241.85 51.18 242 50.65 242.18C45.94 242.91 41.63 240.42 37.16 239.32C36.59 238.96 30.84 237.67 31.97 237.1Z" fill="#151515"/><path d="M2.14 221.98C14.88 221.98 28.2 221.8 40.9 222.65C45.22 223.23 49.48 223.97 53.63 225.44C54.47 226.36 47.77 226.54 47.08 226.7C38.56 227.51 29.82 225.67 21.35 224.85C18.16 224.47 11.72 223.66 8.53 223.26C8.08 223.03 0.61 222.61 2.14 221.98Z" fill="#151515"/><path d="M142.99 51.66C143.17 52.55 143.4 53.44 143.7 54.3C143.93 54.99 144.28 55.62 144.73 56.18C144.92 56.39 145.12 56.58 145.35 56.74L145.44 56.8L145.57 56.9L145.83 57.12L146.36 57.55C147.04 58.13 147.7 58.74 148.32 59.39C148.48 59.55 148.64 59.71 148.79 59.87L149.02 60.12C149.33 60.44 149.57 60.81 149.73 61.23C149.89 61.64 149.96 62.08 149.95 62.52C149.94 62.82 149.88 63.11 149.79 63.39C149.73 63.57 149.66 63.74 149.58 63.91C149.31 64.45 148.96 64.96 148.54 65.4C148.15 65.83 147.71 66.2 147.22 66.51C146.28 67.13 145.2 67.48 144.08 67.52C143.04 67.57 142.02 67.29 141.14 66.73C141.99 66.47 142.8 66.09 143.54 65.61C144.15 65.19 144.67 64.68 145.09 64.08C145.29 63.81 145.47 63.52 145.62 63.22C145.75 62.96 145.86 62.69 145.93 62.41C145.93 62.36 145.95 62.29 145.93 62.29C145.9 62.35 145.88 62.42 145.87 62.49C145.86 62.63 145.88 62.77 145.94 62.9C145.97 62.97 146.01 63.03 146.05 63.08L145.81 62.85C145.65 62.7 145.48 62.54 145.32 62.38C144.69 61.76 144.07 61.1 143.47 60.42L143.04 59.89L142.58 59.32C142.19 58.82 141.89 58.26 141.69 57.66C141.34 56.59 141.3 55.43 141.58 54.33C141.71 53.84 141.89 53.35 142.12 52.9C142.35 52.44 142.64 52.03 142.99 51.66Z" fill="#151515"/><path d="M120.25 70.41C120.43 70.98 120.66 71.52 120.94 72.05C121.2 72.56 121.52 73.05 121.88 73.51C122.53 74.38 123.4 75.06 124.4 75.49C125.35 75.87 126.38 76 127.39 75.87C127.92 75.81 128.45 75.71 128.96 75.57C129.22 75.51 129.49 75.42 129.74 75.34C129.99 75.27 130.24 75.15 130.5 75.08C131.47 74.65 132.38 74.08 133.19 73.38L134.39 72.37L135.63 71.36C136.47 70.67 137.31 69.94 138.18 69.15C139.04 68.36 139.94 67.53 140.94 66.66H140.96C140.98 66.64 141 66.62 141.03 66.6C141.06 66.59 141.09 66.58 141.12 66.58C141.16 66.58 141.19 66.59 141.22 66.6C141.25 66.61 141.27 66.63 141.29 66.65C141.33 66.69 141.35 66.74 141.35 66.79C141.41 68.15 141.19 69.5 140.69 70.77C140.21 72.04 139.53 73.23 138.67 74.28C137.79 75.37 136.7 76.26 135.45 76.9C134.2 77.51 132.88 77.99 131.51 78.3C131.17 78.37 130.84 78.45 130.5 78.51C130.16 78.56 129.83 78.62 129.49 78.64C128.8 78.72 128.1 78.74 127.41 78.69C126.69 78.64 125.98 78.51 125.29 78.29C124.29 77.97 123.36 77.44 122.58 76.73C121.79 76.03 121.17 75.16 120.74 74.2C120.19 73.03 119.88 71.76 119.83 70.47C119.82 70.42 119.84 70.37 119.87 70.33C119.9 70.29 119.95 70.26 120 70.25C120.05 70.24 120.1 70.25 120.15 70.28C120.19 70.31 120.22 70.35 120.24 70.4L120.25 70.41Z" fill="#151515"/><path d="M138.94 57.62C138.84 57.29 138.66 56.98 138.41 56.74C138.14 56.47 137.78 56.29 137.41 56.22C137.02 56.16 136.62 56.21 136.26 56.37C135.92 56.52 135.62 56.75 135.38 57.03C134.96 57.57 134.72 58.22 134.67 58.9C134.62 59.56 134.78 60.21 135.12 60.77C135.3 61.06 135.53 61.3 135.81 61.49C136.09 61.68 136.42 61.79 136.75 61.81C137.08 61.83 137.41 61.75 137.7 61.59C137.97 61.44 138.19 61.23 138.37 60.98C138.7 60.51 138.92 59.96 139 59.39C139.12 58.8 139.09 58.2 138.94 57.62Z" fill="#151515"/><path d="M127.02 64.88C127.15 65.61 127.37 66.33 127.67 67.01C127.96 67.62 128.36 68.07 128.66 68.14C128.75 68.16 128.83 68.15 128.91 68.13C128.99 68.11 129.07 68.07 129.13 68.02C129.27 67.93 129.36 67.95 129.54 68.1C129.73 68.24 129.98 68.44 130.29 68.71C130.46 68.84 130.64 68.99 130.84 69.17C131.07 69.37 131.3 69.58 131.51 69.8V69.81C131.56 69.87 131.59 69.93 131.61 70C131.63 70.07 131.62 70.15 131.6 70.21C131.49 70.52 131.34 70.81 131.16 71.07C130.99 71.3 130.79 71.5 130.58 71.69C130.14 72.03 129.62 72.24 129.06 72.3C128.76 72.33 128.46 72.31 128.17 72.23C127.85 72.13 127.56 71.98 127.29 71.78C126.77 71.36 126.33 70.84 126 70.26C125.72 69.75 125.53 69.2 125.48 68.62C125.43 68.13 125.46 67.64 125.56 67.15C125.74 66.3 126.1 65.49 126.61 64.77C126.63 64.74 126.67 64.71 126.71 64.69C126.75 64.68 126.79 64.67 126.83 64.68C126.88 64.69 126.92 64.71 126.95 64.75C126.98 64.78 127 64.82 127.01 64.86L127.02 64.88Z" fill="#151515"/><path d="M115.34 66.77C115.51 67.17 115.65 67.57 115.77 67.98L115.91 68.55C115.94 68.74 115.97 68.92 115.99 69.1C116.04 69.3 116.1 69.5 116.19 69.69C116.22 69.77 116.23 69.87 116.2 69.95C116.17 70.04 116.11 70.11 116.02 70.14C115.79 70.26 115.53 70.33 115.26 70.35C115.17 70.36 115.09 70.37 115 70.37H114.69L114.33 70.35H114.14L113.91 70.32C113.77 70.31 113.63 70.25 113.52 70.17L113.34 70.03L113.19 69.9L112.91 69.66L112.69 69.44C112.62 69.37 112.58 69.31 112.52 69.24C112.34 69.05 112.2 68.82 112.12 68.56C112.08 68.48 112.09 68.39 112.13 68.31C112.16 68.22 112.23 68.16 112.31 68.13C112.51 68.05 112.69 67.96 112.87 67.84C113.01 67.72 113.16 67.61 113.31 67.51L113.8 67.18C114.17 66.97 114.55 66.78 114.94 66.62C115.01 66.59 115.1 66.58 115.17 66.61C115.25 66.64 115.31 66.7 115.34 66.77Z" fill="#151515"/><path d="M105.71 77.26L111.03 84.8C112.76 87.29 114.48 89.74 116.16 92.19L114.31 91.95L116.54 89.62C117.28 88.82 118.03 88.06 118.77 87.29L123.27 82.65L123.11 84.97C122.1 83.78 121.05 82.62 120.01 81.46L118.45 79.71C117.95 79.12 117.43 78.53 116.93 77.93C115.93 76.74 114.98 75.5 114.06 74.23C113.14 72.96 112.25 71.69 111.39 70.39L113.8 70.8C113.64 70.88 113.44 70.99 113.27 71.1L112.71 71.41C112.33 71.63 111.96 71.86 111.59 72.1C110.85 72.57 110.12 73.06 109.42 73.59C108.72 74.11 108.04 74.67 107.41 75.28C107.24 75.43 107.11 75.6 106.95 75.75L106.72 75.99C106.64 76.08 106.58 76.16 106.51 76.25L106.3 76.52L106.19 76.65L106.1 76.76C105.99 76.9 105.87 77.06 105.71 77.26ZM105.29 77.31C105.31 77.07 105.34 76.8 105.39 76.52C105.39 76.45 105.42 76.37 105.44 76.31L105.48 76.13L105.59 75.77C105.62 75.65 105.65 75.53 105.69 75.42L105.83 75.07C105.92 74.84 106.01 74.6 106.12 74.39C106.55 73.5 107.08 72.66 107.68 71.87C108.27 71.09 108.91 70.36 109.61 69.67C109.78 69.49 109.95 69.32 110.14 69.16C110.32 68.99 110.5 68.83 110.68 68.66C110.86 68.5 111.05 68.34 111.24 68.18C111.43 68.02 111.61 67.87 111.85 67.7C112.18 67.46 112.58 67.34 112.99 67.38C113.4 67.41 113.78 67.6 114.06 67.89L114.27 68.11C115.34 69.25 116.39 70.41 117.41 71.59C118.43 72.76 119.42 73.97 120.36 75.21C120.83 75.83 121.28 76.47 121.74 77.1L123.09 79.01C123.99 80.29 124.89 81.57 125.81 82.83L125.89 82.93C126.13 83.26 126.24 83.67 126.2 84.08C126.15 84.49 125.96 84.86 125.65 85.14L120.83 89.42C120.03 90.14 119.22 90.85 118.41 91.56L115.98 93.67L115.9 93.74C115.78 93.84 115.65 93.92 115.51 93.97C115.36 94.02 115.21 94.03 115.06 94.02C114.91 94.01 114.76 93.97 114.63 93.91C114.49 93.84 114.37 93.75 114.27 93.63C114.22 93.57 114.17 93.51 114.13 93.44C112.59 90.71 111.1 87.98 109.64 85.29L105.29 77.31Z" fill="#151515"/><path d="M124.67 83.9L127.02 85.49C127.73 85.97 128.39 86.41 129.01 86.84C129.62 87.26 130.17 87.68 130.69 88.1C131.2 88.5 131.68 88.94 132.13 89.42L128.48 89.92C128.85 89.06 129.29 88.23 129.78 87.43C130.26 86.64 130.77 85.85 131.24 85.03L131.15 86.29C131.01 85.61 130.85 84.95 130.7 84.27L130.25 82.26C129.96 80.92 129.68 79.57 129.41 78.22L131.26 78.69C130.25 79.5 129.2 80.32 128.1 81.18C127 82.04 125.85 82.93 124.67 83.9ZM124.25 83.89L126.82 80.61C127.73 79.47 128.68 78.28 129.68 77.1C129.86 76.89 130.12 76.75 130.4 76.73C130.68 76.71 130.95 76.8 131.17 76.97C131.3 77.08 131.4 77.22 131.46 77.38L131.54 77.57C132.05 78.84 132.57 80.12 133.06 81.4L133.8 83.33C134.04 83.97 134.28 84.62 134.54 85.25C134.66 85.56 134.67 85.9 134.56 86.2L134.45 86.52C134.13 87.4 133.84 88.3 133.54 89.18C133.24 90.07 132.88 90.93 132.46 91.77L132.4 91.88C132.27 92.14 132.09 92.36 131.88 92.55C131.66 92.73 131.41 92.87 131.14 92.96C130.87 93.05 130.59 93.08 130.3 93.06C130.02 93.04 129.75 92.96 129.49 92.83C129.23 92.69 128.99 92.51 128.8 92.28C128.24 91.59 127.72 90.87 127.23 90.12C126.75 89.38 126.3 88.64 125.91 87.91C125.52 87.18 125.18 86.46 124.89 85.8C124.63 85.18 124.41 84.54 124.25 83.89Z" fill="#151515"/><path d="M130.3 87.85L130.07 87.51C129.46 86.63 128.87 85.72 128.22 84.88C127.89 84.47 127.53 84.06 127.16 83.68C126.78 83.29 126.4 82.92 126.01 82.56L125.68 82.25L125.63 82.21C125.25 81.89 124.78 81.74 124.29 81.78C123.81 81.82 123.36 82.05 123.04 82.42C122.59 82.95 122.16 83.48 121.76 84.02C121.36 84.57 120.99 85.11 120.66 85.66C120.32 86.2 120.02 86.74 119.77 87.24C119.64 87.51 119.5 87.76 119.41 88.01C119.31 88.25 119.22 88.49 119.15 88.74L120.01 91.81C120.16 92.34 120.31 92.88 120.48 93.42L120.99 95.07C121.02 95.18 121.08 95.29 121.16 95.37C121.24 95.45 121.34 95.52 121.45 95.56L121.63 95.62C122.64 95.98 123.66 96.33 124.68 96.67C124.91 96.75 125.15 96.75 125.38 96.67C125.61 96.6 125.8 96.45 125.94 96.25L126.06 96.06C126.78 95 127.48 93.92 128.18 92.84L129.22 91.22C129.56 90.68 129.93 90.15 130.3 89.62C130.48 89.36 130.57 89.05 130.57 88.74C130.57 88.42 130.48 88.11 130.3 87.85Z" fill="#151515"/><path d="M123.5 95.31C123.49 95.28 123.48 95.25 123.46 95.22C123.44 95.19 123.41 95.17 123.38 95.15C123.12 95.25 122.86 95.38 122.62 95.54C122.55 95.58 122.51 95.6 122.46 95.63L122.31 95.71L122.03 95.86C121.83 95.96 121.62 96.04 121.42 96.13C121.23 96.22 121.01 96.26 120.81 96.33C119.98 96.56 119.12 96.64 118.26 96.57C116.54 96.38 114.87 95.85 113.34 95.02C110.25 93.38 107.53 91.05 105.03 88.52C103.78 87.25 102.61 85.92 101.48 84.55C100.35 83.18 99.15 81.74 97.98 80.32C95.64 77.52 93.29 74.72 90.89 71.96C88.49 69.2 86.07 66.45 83.57 63.76C82.32 62.41 81.06 61.07 79.76 59.75C79.1 59.1 78.44 58.43 77.76 57.79L76.73 56.82L75.64 55.87C75.56 55.79 75.44 55.7 75.33 55.62L74.98 55.35C74.76 55.18 74.53 55.05 74.3 54.89C74.07 54.73 73.83 54.62 73.6 54.48C73.37 54.33 73.13 54.23 72.9 54.12C71.99 53.68 71.05 53.3 70.08 52.99C68.24 52.41 66.36 51.97 64.45 51.66C62.58 51.36 60.71 51.16 58.84 51.03C57.91 50.96 56.98 50.91 56.04 50.87C55.11 50.83 54.19 50.81 53.21 50.82H53.16C52.87 50.82 52.59 50.89 52.34 51.02L40.03 57.51L39.99 57.53C39.94 57.56 39.89 57.59 39.84 57.63C39.65 57.75 39.49 57.91 39.37 58.09C39.25 58.28 39.16 58.49 39.12 58.7C39.08 58.92 39.08 59.15 39.12 59.36C39.17 59.58 39.25 59.79 39.38 59.97L50.57 76.6L50.59 76.63C50.73 76.84 50.92 77.01 51.15 77.12C51.38 77.23 51.63 77.28 51.89 77.27C53.58 77.17 55.32 77.1 57.03 77.07C58.74 77.03 60.47 77.01 62.19 77.07C63.91 77.12 65.61 77.18 67.3 77.33L68.55 77.47C68.97 77.51 69.38 77.59 69.79 77.65C70.2 77.71 70.6 77.8 71 77.88C71.19 77.91 71.38 77.96 71.56 78.02C71.73 78.06 71.89 78.12 72.05 78.19C72.77 78.51 73.46 78.9 74.11 79.36C74.46 79.59 74.8 79.82 75.14 80.08C75.48 80.33 75.82 80.58 76.15 80.84C77.5 81.89 78.82 83 80.14 84.12C82.78 86.37 85.41 88.66 88.12 90.87C90.82 93.1 93.64 95.19 96.57 97.12C98.04 98.09 99.57 98.97 101.14 99.77C102.71 100.58 104.35 101.26 106.04 101.8L107.33 102.16L108.65 102.44C109.09 102.52 109.53 102.58 109.97 102.64C110.42 102.71 110.85 102.74 111.3 102.79C113.07 102.97 114.86 102.9 116.62 102.58C118.37 102.23 120.1 101.48 121.39 100.2C122.03 99.56 122.55 98.81 122.92 97.98C123.1 97.56 123.24 97.14 123.35 96.7C123.4 96.48 123.45 96.26 123.48 96.04C123.49 95.93 123.51 95.82 123.52 95.71L123.53 95.54V95.45V95.41C123.5 95.37 123.51 95.4 123.5 95.31Z" fill="#151515"/><path d="M156.34 43.24C156.35 42.55 156.19 41.87 155.88 41.26C155.58 40.66 155.14 40.12 154.61 39.7C154.18 39.35 153.7 39.06 153.18 38.85C153.85 38.1 154.36 37.23 154.69 36.29C155.07 35.25 155.29 34.16 155.34 33.06C155.41 31.96 155.36 30.86 155.18 29.77C155.15 29.48 155.09 29.2 155.02 28.93C154.99 28.77 154.95 28.62 154.9 28.48L154.73 28.03C154.46 27.43 154.06 26.9 153.56 26.47C153.06 26.05 152.49 25.74 151.87 25.53C151.29 25.34 150.69 25.22 150.09 25.17C148.94 25.08 147.79 25.13 146.65 25.32C145.56 25.48 144.47 25.73 143.41 26.04C142.94 26.18 142.47 26.33 142 26.5C141.97 26.41 141.93 26.33 141.89 26.26C141.59 25.67 141.21 25.13 140.78 24.64C139.99 23.77 139.1 23.01 138.13 22.36C137.9 22.2 137.67 22.04 137.44 21.88L136.74 21.44C136.27 21.14 135.78 20.89 135.3 20.62L134.95 20.44C134.82 20.37 134.67 20.3 134.53 20.23L134.11 20.04C133.96 19.98 133.81 19.93 133.66 19.87C133.51 19.81 133.36 19.76 133.21 19.71L132.73 19.59C132.41 19.51 132.08 19.45 131.75 19.41C130.38 19.24 128.98 19.46 127.72 20.03C127.12 20.3 126.55 20.64 126.02 21.04C125.52 21.42 125.05 21.84 124.61 22.29C123.9 23.06 123.27 23.89 122.72 24.77C121.82 24 120.78 23.39 119.67 22.99C119.12 22.79 118.55 22.62 117.98 22.48C117.72 22.42 117.43 22.37 117.15 22.32C116.87 22.27 116.59 22.21 116.32 22.19L115.5 22.1L115.08 22.06C114.93 22.06 114.78 22.06 114.62 22.05C114.47 22.03 114.32 22.05 114.16 22.05L113.69 22.08C113.37 22.09 113.06 22.13 112.75 22.19C111.45 22.4 110.22 22.91 109.14 23.66C108.12 24.39 107.24 25.31 106.55 26.37C105.92 27.35 105.41 28.41 105.04 29.51C104.85 30.05 104.69 30.59 104.56 31.14C104.56 31.14 104.56 31.15 104.56 31.15L104.08 31.24C103.37 31.37 102.66 31.52 101.96 31.71C100.54 32.08 99.16 32.59 97.84 33.24C97.16 33.57 96.51 33.95 95.88 34.39C95.23 34.83 94.62 35.32 94.06 35.88C92.88 37.02 91.99 38.43 91.47 39.99C91.21 40.79 91.05 41.61 91.01 42.44C90.97 43.27 91.03 44.1 91.2 44.91C91.55 46.43 92.17 47.88 93.05 49.17C93.86 50.39 94.8 51.51 95.86 52.52C96.38 53.02 96.91 53.49 97.46 53.94C97.71 54.14 97.97 54.34 98.22 54.53C98.17 54.77 98.12 55.01 98.07 55.25C97.95 55.9 97.86 56.55 97.81 57.21C97.69 58.56 97.76 59.92 98.02 61.25C98.29 62.68 98.9 64.02 99.78 65.18C100.25 65.76 100.8 66.27 101.41 66.7L101.87 67.01C102.03 67.11 102.19 67.19 102.35 67.28C102.5 67.36 102.67 67.45 102.83 67.52C102.98 67.59 103.14 67.66 103.3 67.73C103.94 67.98 104.61 68.19 105.28 68.34C105.94 68.47 106.61 68.56 107.28 68.6C108.59 68.68 109.9 68.61 111.2 68.39C112.46 68.19 113.7 67.89 114.91 67.49C115.52 67.3 116.11 67.08 116.7 66.84C116.99 66.73 117.28 66.6 117.57 66.47C117.86 66.35 118.14 66.21 118.47 66.05H118.48C118.71 65.93 118.9 65.76 119.04 65.54C119.17 65.32 119.24 65.08 119.24 64.82C119.24 64.57 119.17 64.32 119.04 64.1C118.9 63.89 118.71 63.71 118.48 63.6C116.83 62.81 115.31 61.75 113.99 60.48C113.39 59.88 112.9 59.19 112.52 58.43C112.18 57.73 112.04 56.96 112.11 56.19C112.2 55.43 112.49 54.7 112.97 54.1C113.48 53.48 114.13 52.98 114.87 52.64C115.62 52.3 116.44 52.12 117.26 52.13C118.09 52.14 118.9 52.34 119.64 52.72L119.91 52.87C120 52.91 120.09 52.97 120.17 53.03L120.43 53.21L120.56 53.3L120.63 53.35L120.72 53.41C121.2 53.8 121.75 54.11 122.34 54.3C122.74 54.43 123.15 54.46 123.55 54.39C123.99 54.31 124.39 54.1 124.71 53.8C124.97 53.55 125.19 53.26 125.35 52.95C125.49 52.68 125.61 52.41 125.71 52.13C126.01 51.13 126.25 50.12 126.41 49.1C126.51 48.62 126.6 48.16 126.73 47.75C126.78 47.56 126.84 47.39 126.93 47.22C126.93 47.19 126.95 47.17 126.96 47.15L127.03 47.19L127.22 47.3L127.43 47.42L127.64 47.52C128.19 47.76 128.77 47.89 129.37 47.93C130.45 47.98 131.53 47.86 132.57 47.58C133.57 47.32 134.54 46.99 135.49 46.59C136.28 46.26 137.03 45.91 137.79 45.51C138.59 46.28 139.41 47.03 140.25 47.76C141.23 48.6 142.23 49.42 143.29 50.18C143.82 50.56 144.36 50.93 144.94 51.26C145.53 51.63 146.18 51.92 146.85 52.11C147.04 52.16 147.23 52.18 147.43 52.19C147.62 52.19 147.8 52.18 147.99 52.16C148.17 52.14 148.34 52.11 148.52 52.06L148.78 52L149.03 51.92C149.67 51.71 150.29 51.43 150.88 51.08C152.02 50.41 153.05 49.57 153.95 48.6C154.85 47.63 155.55 46.48 156 45.24C156.03 45.16 156.06 45.08 156.09 45L156.15 44.75L156.26 44.26C156.29 44.1 156.3 43.93 156.32 43.76L156.35 43.51C156.37 43.41 156.35 43.32 156.34 43.24Z" fill="#151515"/><path d="M133.35 86.28C145.26 83.79 156.1 77.63 164.34 68.67C168.79 63.94 172.93 58.85 177.28 54.04C177.97 53.3 178.7 52.3 179.66 51.87C182.01 50.61 184.17 51.93 186.07 53.32C190.19 56.07 194.21 58.9 198 62.13C198.04 62.16 198.07 62.2 198.07 62.25C198.08 62.3 198.07 62.35 198.05 62.39C198.02 62.44 197.98 62.47 197.94 62.49C197.89 62.51 197.84 62.51 197.79 62.49C192.37 60.55 187.22 58.07 182.1 55.5C181.32 55.44 179.76 58.17 178.96 58.78C173.2 64.7 167.39 70.71 160.93 75.86C155.54 79.82 149.52 82.83 143.11 84.74C139.94 85.72 136.69 86.37 133.4 86.7C133.14 86.72 133.07 86.31 133.35 86.28Z" fill="#151515"/><path d="M138.31 119.8C153.45 117.72 168.45 111.94 180.31 102.22C184.56 98.73 188.62 95.02 192.48 91.11C195.03 88.47 197.37 85.73 199.86 82.92C200 82.74 200.33 82.92 200.23 83.13C194.86 98.62 180.73 108.79 165.96 114.51C160.07 116.81 153.95 118.44 147.7 119.4C144.59 119.89 141.46 120.17 138.32 120.22C138.26 120.22 138.21 120.2 138.17 120.16C138.12 120.12 138.1 120.07 138.1 120.01C138.1 119.96 138.12 119.9 138.16 119.86C138.2 119.82 138.25 119.8 138.31 119.8Z" fill="#151515"/><path d="M141.11 101.56C139.59 114.19 140.35 126.96 138.52 139.53C137.71 140.43 136.27 135.62 136.1 134.96C134.78 130.11 135.46 125.15 136.41 120.32C137.42 113.96 138.85 107.66 140.7 101.48C140.72 101.44 140.75 101.39 140.79 101.37C140.84 101.34 140.89 101.34 140.94 101.35C140.99 101.36 141.03 101.38 141.07 101.42C141.1 101.46 141.11 101.51 141.11 101.56Z" fill="#151515"/><path d="M121.76 147.94C133.89 138.83 171.23 117.07 170.74 146.73C170.51 153.15 168.65 142.82 167.48 141.71C162.32 130.43 144.1 138.14 135.65 141.53C130.99 143.55 126.43 145.81 121.99 148.3C121.78 148.43 121.54 148.09 121.76 147.94Z" fill="#151515"/><path d="M182.93 64.18C183.07 67.88 177.64 67.86 177.64 64.18C177.64 60.5 183.08 60.45 182.93 64.18ZM182.93 64.18C182.98 63.32 181.74 62.86 181.34 63.65C181.04 64.05 181.04 64.31 181.34 64.71C181.75 65.51 182.98 65.04 182.93 64.18Z" fill="#151515"/><path d="M176.09 71.82C176.24 75.53 170.81 75.5 170.81 71.82C170.81 68.15 176.25 68.1 176.09 71.82ZM176.09 71.82C176.15 70.96 174.91 70.5 174.51 71.29C174.21 71.69 174.2 71.95 174.51 72.35C174.92 73.16 176.15 72.69 176.09 71.82Z" fill="#151515"/><path d="M78.84 128.76C78.99 132.46 73.55 132.44 73.55 128.76C73.55 125.08 79 125.03 78.84 128.76ZM78.84 128.76C78.89 127.9 77.66 127.44 77.26 128.23C76.96 128.63 76.95 128.89 77.26 129.29C77.66 130.11 78.9 129.62 78.84 128.76Z" fill="#151515"/><path d="M67.92 126.58C68.07 130.29 62.63 130.26 62.63 126.58C62.63 122.91 68.07 122.86 67.92 126.58ZM67.92 126.58C67.97 125.72 66.73 125.26 66.33 126.06C66.03 126.45 66.03 126.72 66.33 127.11C66.74 127.92 67.97 127.45 67.92 126.58Z" fill="#151515"/><path d="M105.51 77.49C90.06 79 70.56 81.58 58.61 92.21C50.58 100.65 38.56 111.53 43.57 124.29C49.1 132.96 75.47 134.37 85.3 133.89C85.26 133.9 85.22 133.91 85.18 133.94C87.98 129.55 93.29 119.92 96.51 113.55L97.97 115.92C93.17 115.62 88.17 115.28 83.37 114.9C78.44 112.55 93.75 107.15 95.48 106.44C95.53 106.42 95.59 106.42 95.64 106.44C95.69 106.46 95.73 106.5 95.75 106.55C95.78 106.59 95.78 106.65 95.76 106.7C95.74 106.75 95.71 106.8 95.66 106.82C91.88 109.11 87.6 110.97 84.47 114.12C84.55 113.93 84.56 113.71 84.5 113.52L83.49 112.74C88.29 112.65 93.28 112.6 98.06 112.58C101.74 113.22 97.95 117.64 97.44 119.6C94.63 125.43 92.11 131.46 88.32 136.75C87.19 138.44 84.94 138.34 83.18 138.43C71.77 138.34 48.3 136.25 41.15 126.66C37.64 120.05 39.36 111.81 43.43 105.87C47.26 100.09 52.12 95.33 57.09 90.6C58.39 89.43 59.79 88.37 61.27 87.43C71.55 81.26 83.64 79.13 95.37 77.75C98.73 77.4 102.1 77.15 105.48 77.05C105.53 77.05 105.59 77.07 105.64 77.11C105.68 77.14 105.71 77.2 105.71 77.26C105.72 77.31 105.7 77.37 105.66 77.42C105.62 77.46 105.57 77.49 105.51 77.49Z" fill="#151515"/><path d="M88.75 134.89C90.46 135.08 92.29 135.28 93.92 134.69C94.19 134.59 94.43 134.38 94.69 134.27C94.81 134.22 94.94 134.19 95.07 134.19C95.2 134.2 95.33 134.23 95.45 134.29C95.56 134.35 95.67 134.44 95.75 134.54C95.83 134.64 95.88 134.76 95.91 134.89C95.15 138.62 93.9 141.59 97.3 144.54C97.77 145.02 99.94 146.87 100.4 146.06C100.4 146.06 100.4 146.06 100.4 146.05C100.31 146.05 100.08 147 100.04 147.07C99.87 142.96 100.52 138.88 101.56 134.89L101.84 135.72C99.06 130.75 100.52 131.57 103.85 134.53C104.52 138.75 104.77 143.05 104.15 147.29C104.03 148.72 102.56 149.65 101.29 149.91C99.2 150.27 97.66 149.21 96.24 147.96C92.29 144.63 91.68 139.52 94.28 135.18C94.31 135.18 94.37 134.9 94.36 135.05C94.34 135.44 94.84 135.88 95.23 135.71C94.21 136.74 87.14 135.5 88.75 134.89Z" fill="#151515"/><path d="M102.84 143.87C104.55 144.4 106.84 145.24 108.44 144.18C109.35 140.28 106.7 136.46 107.07 132.5C107.34 131.26 106.21 130.27 105.58 128.94C105.41 128.34 106.37 128.62 106.68 128.62C108.51 128.86 110.45 130.06 110.89 131.97C111.91 134.91 112.87 145.24 109.02 146.28C107.85 147.29 101.23 144.28 102.84 143.87Z" fill="#151515"/><path d="M111 139.39C113.5 139.71 117.09 139.52 118.21 136.88C118.23 137.17 118.28 137.46 118.34 137.75C115.82 134.15 113.33 130.5 111.39 126.57C110.96 126.11 110.25 125.93 109.65 125.74C108.86 125.37 103.07 124.39 103.71 123.44C106.23 122.43 108.89 121.78 111.62 122.12C113.26 122.36 114.86 123.36 115.51 124.94C116.74 128.94 118.49 132.78 120.35 136.53C120.46 136.71 120.51 136.9 120.52 137.1C120.53 137.31 120.48 137.5 120.39 137.68C118.63 141.07 113.98 141.1 110.87 139.8C110.82 139.78 110.77 139.75 110.75 139.7C110.72 139.65 110.71 139.59 110.73 139.53C110.74 139.48 110.78 139.43 110.83 139.4C110.88 139.38 110.94 139.37 111 139.39Z" fill="#151515"/><path d="M98.35 116.32C107.34 117.21 112.93 108.39 114.52 113.27C116.06 116.08 116.33 120.2 113.26 122.13C112.57 122.86 107.52 124.77 107.39 123.47C110.09 120.05 112.18 118.97 111.03 114.21L113.44 115.11C108.66 116.96 103.31 118.55 98.26 116.74C98.21 116.73 98.16 116.7 98.13 116.65C98.09 116.6 98.08 116.54 98.1 116.49C98.11 116.43 98.14 116.38 98.19 116.35C98.24 116.32 98.3 116.31 98.35 116.32Z" fill="#151515"/><path d="M188.33 55.93C189.94 40.99 203.08 43.49 214.59 42.38C214.97 42.37 215.34 42.49 215.65 42.71C215.96 42.93 216.19 43.25 216.3 43.61C219.87 52.2 208.45 57.54 201.42 55.28L203.27 54.41C196.89 64.24 196.44 63.95 200.33 52.96L202.18 52.09C205.88 52.31 214.31 49.92 213 44.97L214.6 45.96C208.1 45.92 201.33 45.32 194.95 46.69C191.56 48.36 189.97 52.62 188.75 56.04C188.74 56.09 188.7 56.14 188.65 56.17C188.6 56.2 188.55 56.21 188.49 56.19C188.44 56.18 188.39 56.14 188.36 56.09C188.33 56.05 188.32 55.99 188.33 55.93Z" fill="#151515"/><path d="M270.16 32.88C270.2 32.84 259.53 7.19 258.66 7.13C245.75 6.26 232.18 5.75 219.21 5.32C218.81 5.31 218.43 5.43 218.11 5.66C217.79 5.88 217.56 6.21 217.44 6.58C216.45 9.7 207.58 35.98 205.44 44.34C211.36 33.39 215.76 20.9 220.45 9.16C232.48 10.09 257.17 11.93 257.17 11.93C255.04 16.95 252.96 22.46 250.99 27.53C249.54 31.12 263.57 32.87 266.01 32.64L266.46 33.69C264.47 41.2 263.29 48.94 260.91 56.35C255.74 70.44 246.81 82.95 237.01 94.19C221.37 88 205.41 82.51 189.33 77.56C194.79 70.32 199.18 62.43 201.81 53.72C201.91 53.49 201.53 53.32 201.42 53.55C200.47 55.47 187.78 74.64 185.56 77.49C185.41 77.69 185.31 77.92 185.26 78.17C185.22 78.41 185.24 78.67 185.31 78.9C185.39 79.14 185.52 79.36 185.69 79.53C185.87 79.71 186.09 79.84 186.32 79.92C194.67 82.97 203.06 85.91 211.47 88.75C219.78 91.54 228.56 94.04 236.99 96.51C238.62 96.88 257.39 72.42 262.14 59.25C264.5 52.64 270.19 36.09 270.16 32.88ZM264.5 29.9C261.5 28.32 258.33 27.08 254.97 26.55C255.96 22.5 257.01 17.7 257.86 13.59C259.61 17.72 263.14 26.03 264.92 30.13L264.5 29.9Z" fill="#151515"/></g></svg>
